<svg width="100%" height="100%" id="svg" viewBox="0 0 1440 500" xmlns="http://www.w3.org/2000/svg" class="transition duration-300 ease-in-out delay-150"><defs><linearGradient id="gradient" x1="0%" y1="50%" x2="100%" y2="50%"><stop offset="5%" stop-color="#002bdc88"></stop><stop offset="95%" stop-color="#32ded488"></stop></linearGradient></defs><path d="M 0,500 C 0,500 0,166 0,166 C 41.99358737205576,195.25080774448145 83.98717474411151,224.50161548896287 143,225 C 202.0128252558885,225.49838451103713 278.04488839560975,197.24434578862991 329,181 C 379.95511160439025,164.75565421137009 405.83327167344936,160.52100135651747 456,172 C 506.16672832655064,183.47899864348253 580.6220249105933,210.6716487853003 636,191 C 691.3779750894067,171.3283512146997 727.6786286841781,104.79240350228139 788,117 C 848.3213713158219,129.2075964977186 932.6634603526945,220.15873720557406 984,223 C 1035.3365396473055,225.84126279442594 1053.6675299050437,140.5726476754224 1101,113 C 1148.3324700949563,85.42735232457763 1224.6664200271305,115.55067209273645 1286,134 C 1347.3335799728695,152.44932790726355 1393.6667899864347,159.22466395363176 1440,166 C 1440,166 1440,500 1440,500 Z" stroke="none" stroke-width="0" fill="url(#gradient)" class="transition-all duration-300 ease-in-out delay-150 path-0"></path><defs><linearGradient id="gradient" x1="0%" y1="50%" x2="100%" y2="50%"><stop offset="5%" stop-color="#002bdcff"></stop><stop offset="95%" stop-color="#32ded4ff"></stop></linearGradient></defs><path d="M 0,500 C 0,500 0,333 0,333 C 51.06982365273153,361.27051424343324 102.13964730546306,389.5410284868664 157,372 C 211.86035269453694,354.4589715131336 270.51123443087926,291.10640029596743 320,289 C 369.48876556912074,286.89359970403257 409.8154149710199,346.0333703292638 468,369 C 526.1845850289801,391.9666296707362 602.2271056850412,378.7601183869774 658,363 C 713.7728943149588,347.2398816130226 749.276162288815,328.9261561228265 797,316 C 844.723837711185,303.0738438771735 904.6682451596992,295.5352571217166 961,290 C 1017.3317548403008,284.4647428782834 1070.0508570723887,280.9328153903071 1119,302 C 1167.9491429276113,323.0671846096929 1213.128326550746,368.7334813170551 1266,378 C 1318.871673449254,387.2665186829449 1379.435836724627,360.13325934147247 1440,333 C 1440,333 1440,500 1440,500 Z" stroke="none" stroke-width="0" fill="url(#gradient)" class="transition-all duration-300 ease-in-out delay-150 path-1"></path></svg>